<?xml version="1.0" standalone="no"?>
<!DOCTYPE svg PUBLIC "-//W3C//DTD SVG 20010904//EN"
 "http://www.w3.org/TR/2001/REC-SVG-20010904/DTD/svg10.dtd">
<svg version="1.0" xmlns="http://www.w3.org/2000/svg"
 width="631.000000pt" height="506.000000pt" viewBox="0 0 631.000000 506.000000"
 preserveAspectRatio="xMidYMid meet">

<g transform="translate(0.000000,506.000000) scale(0.100000,-0.100000)"
fill="#000000" stroke="none">
<path d="M0 2530 l0 -2530 3155 0 3155 0 0 2530 0 2530 -3155 0 -3155 0 0
-2530z m3225 1305 c66 -25 190 -74 277 -107 l156 -61 -15 -32 -15 -32 166
-197 c91 -108 166 -201 166 -206 0 -13 -82 -96 -150 -152 -217 -178 -571 -336
-937 -419 -52 -11 -56 -8 -73 54 -6 20 -16 37 -23 37 -7 0 -36 -14 -66 -30
-29 -16 -57 -27 -61 -25 -12 7 -429 562 -436 578 -4 11 9 16 48 20 68 7 183
47 267 93 156 85 342 254 480 437 41 54 79 96 85 93 6 -2 65 -25 131 -51z
m-518 -1315 c112 -27 186 -62 330 -157 131 -87 178 -108 318 -143 136 -34 227
-87 260 -151 19 -36 19 -59 -1 -109 -36 -88 -137 -106 -294 -52 -47 17 -161
59 -255 95 -178 68 -257 88 -270 67 -12 -20 10 -32 132 -76 65 -23 170 -65
233 -93 129 -57 250 -91 319 -91 69 0 144 39 177 91 37 60 45 154 16 201 -49
78 -107 111 -297 168 -60 18 -113 35 -117 39 -8 7 58 60 215 174 84 61 130 73
161 41 23 -23 20 -52 -11 -92 -31 -42 -20 -36 66 31 54 43 71 51 116 55 47 4
54 2 74 -23 25 -32 22 -50 -19 -110 -53 -80 -48 -79 40 2 66 60 146 75 192 36
40 -35 30 -80 -41 -178 l-36 -50 35 28 c150 120 151 121 211 125 54 4 60 2 90
-27 27 -27 31 -37 26 -66 -15 -90 -237 -340 -402 -452 -173 -117 -362 -195
-550 -227 -120 -21 -353 -21 -476 0 -283 49 -576 210 -772 425 -141 154 -191
256 -154 312 29 45 289 181 402 212 73 20 188 18 282 -5z m-1257 -1395 l0 -65
-250 0 -250 0 0 -213 c0 -152 3 -216 12 -225 9 -9 78 -12 250 -12 l238 0 0
-65 0 -65 -232 0 c-130 0 -250 5 -270 10 -48 14 -97 55 -114 97 -11 24 -14 96
-14 296 0 239 2 265 18 279 9 9 24 18 32 21 8 3 142 6 298 6 l282 1 0 -65z
m789 41 c21 -19 21 -26 21 -353 l0 -334 -62 3 -63 3 -3 83 -3 82 -219 0 -220
0 0 -85 0 -86 -62 3 -63 3 1 215 c0 199 2 219 23 272 42 107 151 189 275 208
28 5 119 7 202 7 134 -2 154 -4 173 -21z m791 -1 c20 -12 45 -39 58 -65 20
-39 23 -56 20 -135 -3 -78 -8 -98 -31 -138 -32 -55 -82 -91 -149 -107 l-47
-12 124 -107 c68 -58 124 -109 124 -113 1 -5 -40 -8 -90 -8 l-91 0 -134 115
c-128 110 -135 115 -179 115 l-45 0 0 64 0 65 166 3 166 3 29 33 c28 31 30 38
27 105 l-3 72 -217 3 -218 2 -2 -287 -3 -288 -62 -3 -63 -3 0 334 c0 305 1
335 18 349 28 25 44 27 312 25 236 -2 258 -4 290 -22z m537 -222 l242 -248 1
248 0 248 63 -3 62 -3 2 -325 c3 -366 2 -373 -58 -378 -34 -3 -42 3 -160 125
-68 70 -177 182 -241 248 l-118 120 0 -248 0 -248 -62 3 -63 3 0 331 c0 312 1
333 19 353 43 47 55 38 313 -226z m1151 180 l3 -63 -256 0 -255 0 0 -215 c0
-202 1 -215 19 -225 12 -6 112 -10 256 -10 l236 0 -3 -62 -3 -63 -210 -3
c-115 -2 -233 0 -262 3 -67 8 -112 39 -140 95 -22 43 -23 54 -23 306 0 236 2
262 18 276 9 9 26 18 37 21 11 3 146 4 300 3 l280 -1 3 -62z m742 42 c51 -30
80 -93 80 -175 0 -84 -21 -156 -58 -197 -31 -34 -100 -73 -129 -73 -50 -1 -39
-18 61 -103 57 -49 114 -99 126 -113 l23 -24 -94 0 -94 0 -131 115 c-125 108
-134 114 -180 117 l-49 3 -3 63 -3 62 158 0 c139 0 162 2 190 20 45 27 54 51
51 128 l-3 67 -217 3 -218 2 -2 -287 -3 -288 -62 -3 -63 -3 0 334 c0 306 1
335 18 349 9 9 24 18 32 21 8 4 132 5 275 4 241 -2 263 -4 295 -22z m-4062
-332 l3 -63 -206 0 -205 0 0 58 c0 32 3 62 7 66 4 3 95 5 202 4 l196 -3 3 -62z
m3262 2 l0 -65 -200 0 -200 0 0 65 0 65 200 0 200 0 0 -65z"/>
<path d="M3033 3777 c-182 -228 -423 -424 -618 -503 -47 -19 -91 -34 -99 -34
-8 0 -17 -4 -20 -9 -4 -6 319 -423 380 -490 6 -7 224 142 316 216 110 88 308
287 392 393 74 93 183 250 188 269 3 11 -461 212 -486 211 -6 -1 -30 -25 -53
-53z m343 -124 c40 -18 40 -19 28 -48 -18 -41 -17 -76 2 -103 15 -21 13 -26
-49 -105 -177 -226 -348 -390 -506 -486 l-54 -33 -38 18 c-29 12 -54 15 -96
11 l-58 -5 -102 124 c-57 68 -103 127 -103 132 0 5 11 19 25 32 15 14 25 35
25 51 0 25 8 32 73 62 136 64 270 163 412 306 54 55 87 81 103 81 31 0 79 26
92 50 11 20 13 19 246 -87z"/>
<path d="M3002 3404 c-28 -19 -28 -32 -1 -60 18 -19 26 -21 41 -13 23 12 25
11 28 -16 4 -39 0 -55 -22 -77 l-22 -22 -37 44 c-36 41 -37 45 -22 62 17 19
19 18 -37 22 -8 1 -29 16 -47 34 -39 39 -84 44 -107 10 -18 -25 -21 -58 -7
-58 21 0 41 13 41 26 0 22 14 17 45 -16 24 -25 26 -32 15 -45 -12 -14 -11 -18
1 -26 8 -4 21 -6 30 -4 10 3 27 -11 49 -40 39 -52 66 -63 106 -43 44 21 67 61
72 126 4 56 3 60 -28 85 -36 31 -66 34 -98 11z"/>
<path d="M3592 3558 c-8 -10 2 -29 38 -76 26 -35 69 -100 95 -143 44 -74 46
-82 35 -110 -7 -16 -10 -42 -7 -59 6 -26 0 -34 -48 -77 -116 -104 -343 -215
-596 -293 l-133 -41 -27 31 c-15 16 -31 30 -34 30 -4 0 -23 -12 -43 -27 -20
-15 -39 -28 -41 -30 -2 -2 1 -21 8 -43 14 -46 3 -46 192 0 221 54 438 149 623
271 103 68 246 191 246 211 0 12 -238 314 -272 346 -20 18 -27 20 -36 10z"/>
<path d="M3343 3199 c-16 -16 -17 -51 -1 -67 7 -7 23 -12 36 -12 22 0 24 -3
18 -32 -6 -34 -41 -71 -60 -65 -6 2 -22 24 -36 50 -25 46 -25 46 -5 61 11 9
16 15 10 15 -5 0 -23 -11 -39 -25 -27 -24 -28 -28 -17 -63 27 -90 88 -117 149
-66 61 51 79 134 40 179 -27 30 -77 43 -95 25z"/>
<path d="M1861 1049 c-102 -20 -161 -89 -169 -200 l-5 -69 222 0 221 0 0 140
0 140 -112 -1 c-62 -1 -133 -5 -157 -10z"/>
</g>
</svg>
