<?xml version="1.0" standalone="no"?>
<!DOCTYPE svg PUBLIC "-//W3C//DTD SVG 20010904//EN"
 "http://www.w3.org/TR/2001/REC-SVG-20010904/DTD/svg10.dtd">
<svg version="1.0" xmlns="http://www.w3.org/2000/svg"
 width="795.000000pt" height="533.000000pt" viewBox="0 0 795.000000 533.000000"
 preserveAspectRatio="xMidYMid meet">

<g transform="translate(0.000000,533.000000) scale(0.100000,-0.100000)"
fill="#000000" stroke="none">
<path d="M3810 4661 c-76 -25 -127 -70 -159 -141 -24 -53 -26 -100 -8 -161 19
-60 981 -1955 1016 -1999 15 -19 52 -48 82 -63 46 -25 62 -28 114 -24 138 10
224 103 225 241 0 58 -7 73 -502 1049 -276 545 -515 1006 -531 1024 -17 19
-48 43 -70 54 -44 23 -128 33 -167 20z"/>
<path d="M2897 3406 c-101 -28 -168 -117 -170 -228 -2 -59 1 -66 183 -425 140
-277 195 -375 226 -407 144 -146 399 -37 398 169 0 58 -7 74 -180 418 -98 197
-194 376 -213 398 -61 73 -152 101 -244 75z"/>
<path d="M1280 1210 l0 -550 335 0 335 0 0 105 0 105 -185 0 -185 0 0 120 0
120 155 0 155 0 0 105 0 105 -155 0 -155 0 0 115 0 115 180 0 180 0 0 105 0
105 -330 0 -330 0 0 -550z"/>
<path d="M2295 1748 c-8 -24 -275 -1073 -275 -1080 0 -5 65 -8 144 -8 l144 0
18 83 19 82 132 3 131 3 10 -48 c6 -26 14 -65 17 -85 l7 -38 149 0 c82 0 149
3 149 7 0 7 -244 963 -266 1041 l-15 52 -180 0 c-135 0 -181 -3 -184 -12z
m228 -519 c21 -96 37 -179 37 -182 0 -4 -39 -7 -86 -7 -65 0 -85 3 -81 13 2 6
22 92 43 189 21 98 41 174 45 170 3 -4 22 -86 42 -183z"/>
<path d="M3050 1211 l0 -551 150 0 150 0 0 195 c0 107 4 195 8 195 5 0 47 -87
94 -192 l86 -193 161 -3 161 -2 -100 200 -100 200 24 10 c40 15 94 69 108 108
15 42 19 371 5 434 -10 47 -48 93 -101 121 -39 21 -54 22 -343 25 l-303 3 0
-550z m450 319 c6 -8 10 -67 10 -130 0 -63 -4 -122 -10 -130 -6 -10 -32 -16
-79 -18 l-71 -4 0 152 0 152 71 -4 c47 -2 73 -8 79 -18z"/>
<path d="M3960 1210 l0 -550 135 0 135 0 2 288 3 287 122 -285 121 -285 126
-3 126 -3 0 551 0 550 -135 0 -135 0 -2 -287 -3 -287 -119 287 -119 287 -128
0 -129 0 0 -550z"/>
<path d="M4910 1210 l0 -550 335 0 335 0 0 105 0 105 -185 0 -185 0 0 120 0
120 155 0 155 0 0 105 0 105 -155 0 -155 0 0 115 0 115 175 0 175 0 0 105 0
105 -325 0 -325 0 0 -550z"/>
<path d="M5710 1211 l0 -551 150 0 150 0 0 196 c0 132 3 195 10 192 6 -2 50
-90 97 -196 l86 -192 159 0 c87 0 158 3 158 7 0 3 -45 93 -99 199 l-100 193
45 21 c91 45 107 99 102 352 -3 173 -4 185 -28 227 -18 32 -39 52 -75 70 -49
26 -50 26 -352 29 l-303 3 0 -550z m434 329 l26 -10 0 -130 0 -130 -26 -10
c-14 -6 -50 -10 -80 -10 l-54 0 0 150 0 150 54 0 c30 0 66 -4 80 -10z"/>
</g>
</svg>
